<svg width="30" height="30" viewBox="0 0 30 30" fill="none" xmlns="http://www.w3.org/2000/svg">
<g clip-path="url(#clip0_3537_10895)">
<path d="M14.2724 0.0175935C6.34946 0.39484 0.0971275 6.99314 0.121163 14.9251C0.128481 17.3409 0.711714 19.6212 1.74057 21.636L0.160911 29.3039C0.0754599 29.7186 0.449549 30.0818 0.861593 29.9842L8.37517 28.2041C10.3055 29.1657 12.4737 29.7211 14.7684 29.7561C22.8664 29.8798 29.6188 23.4497 29.8712 15.3547C30.1417 6.67738 22.9801 -0.397105 14.2724 0.0175935ZM23.2377 23.117C21.0373 25.3174 18.1117 26.5292 14.9999 26.5292C13.1778 26.5292 11.4333 26.1204 9.81478 25.3141L8.76842 24.7929L4.16182 25.8843L5.13148 21.1772L4.61598 20.1677C3.77575 18.5222 3.34971 16.7428 3.34971 14.879C3.34971 11.7671 4.56152 8.84156 6.76194 6.64108C8.94269 4.46032 11.916 3.22878 15.0001 3.22878C18.1119 3.22885 21.0374 4.44066 23.2378 6.641C25.4382 8.84142 26.65 11.767 26.6501 14.8788C26.65 17.9629 25.4185 20.9363 23.2377 23.117Z" fill="#453E45"/>
<path d="M22.2205 18.1059L19.3385 17.2783C18.9596 17.1696 18.5516 17.277 18.2755 17.5584L17.5707 18.2764C17.2736 18.5792 16.8226 18.6765 16.4293 18.5173C15.066 17.9656 12.1981 15.4157 11.4657 14.1403C11.2544 13.7723 11.2894 13.3124 11.5488 12.9767L12.1641 12.1806C12.4052 11.8687 12.456 11.4499 12.2966 11.0894L11.0841 8.34696C10.7937 7.69012 9.95429 7.49891 9.40592 7.96269C8.60157 8.64299 7.64718 9.6768 7.53117 10.8221C7.32662 12.8414 8.19261 15.3868 11.4674 18.4432C15.2506 21.9743 18.2802 22.4408 20.2527 21.9629C21.3716 21.6919 22.2657 20.6055 22.83 19.716C23.2147 19.1095 22.9109 18.3041 22.2205 18.1059Z" fill="#453E45"/>
</g>
<defs>
<clipPath id="clip0_3537_10895">
<rect width="30" height="30" fill="white"/>
</clipPath>
</defs>
</svg>
